<?xml version="1.0" encoding="utf-8"?>
<!-- Generator: Adobe Illustrator 27.8.1, SVG Export Plug-In . SVG Version: 6.00 Build 0)  -->
<svg version="1.1" id="Layer_1" xmlns="http://www.w3.org/2000/svg" xmlns:xlink="http://www.w3.org/1999/xlink" x="0px" y="0px"
	 viewBox="0 0 500 500" style="enable-background:new 0 0 500 500;" xml:space="preserve">
<style type="text/css">
	.st0{fill:#006837;stroke:#F58E81;stroke-miterlimit:10;}
	.st1{fill:#9990C5;stroke:#F58E81;stroke-miterlimit:10;}
	.st2{fill:#A6A8AB;}
	.st3{fill:#86ADEE;}
	.st4{fill:#FFFFFF;}
	.st5{fill:#929497;}
	.st6{fill:#9990C5;}
	.st7{fill:#F58E81;}
	.st8{fill:#FFF197;}
	.st9{fill:#39B54A;}
	.st10{fill:#00A651;}
	.st11{fill:#E6E6E6;stroke:#000000;stroke-miterlimit:10;}
	.st12{fill:#8C6239;stroke:#000000;stroke-miterlimit:10;}
	.st13{fill:#FF7BAC;stroke:#000000;stroke-miterlimit:10;}
	.st14{stroke:#000000;stroke-miterlimit:10;}
</style>
<rect x="0.5" y="392.5" class="st0" width="500" height="108"/>
<polygon class="st1" points="281.05,421.69 211.88,421.69 241.85,60.84 248.77,60.84 "/>
<g>
	
		<ellipse transform="matrix(0.9999 -0.0151 0.0151 0.9999 -1.5346 3.7592)" class="st2" cx="248.29" cy="103.55" rx="195.74" ry="46.55"/>
	<path class="st3" d="M247.59,57.01c23.17-0.35,45.41,0.28,66.07,1.72c-1.95-32.63-31.17-58.25-66.53-57.72
		C211.79,1.54,183.37,28,182.37,60.65C202.76,58.62,224.71,57.35,247.59,57.01z"/>
	<path class="st4" d="M241.9,7.03c0,0-37.23-1.55-50.01,40.23L241.9,7.03z"/>
	<path class="st5" d="M425.8,120.66c-1.15,0.56-2.48-0.67-3.71-0.99c-187.43-49.38-350.71,6.34-350.71,6.34
		c-5.39-2.43-11.37-7.03-11.37-7.03s159.37-68.83,378.17-6.8C438.17,112.17,430.87,118.18,425.8,120.66z"/>
	<circle class="st6" cx="104.53" cy="88.82" r="6.32"/>
	<circle class="st7" cx="144.05" cy="79.8" r="6.32"/>
	<circle class="st8" cx="183.61" cy="73.98" r="6.32"/>
	<circle class="st9" cx="239.71" cy="70.14" r="6.32"/>
	<circle class="st10" cx="298.63" cy="71" r="6.32"/>
	<circle class="st8" cx="346.77" cy="76.99" r="6.32"/>
	<circle class="st7" cx="391.06" cy="85.13" r="6.32"/>
	<circle class="st6" cx="431.83" cy="96.87" r="6.32"/>
</g>
<ellipse class="st11" cx="732.77" cy="296.62" rx="4.98" ry="12.23"/>
<ellipse class="st11" cx="647.64" cy="302.06" rx="4.98" ry="12.23"/>
<ellipse class="st11" cx="689.75" cy="276.25" rx="55.25" ry="31.25"/>
<ellipse class="st11" cx="629.75" cy="252.25" rx="4.75" ry="2.26"/>
<ellipse class="st11" cx="658.28" cy="252.25" rx="4.75" ry="2.26"/>
<ellipse transform="matrix(0.9667 -0.2561 0.2561 0.9667 -42.1725 171.5588)" class="st12" cx="637.68" cy="247.72" rx="1.36" ry="2.26"/>
<ellipse transform="matrix(0.2174 -0.9761 0.9761 0.2174 267.8902 829.553)" class="st12" cx="651.26" cy="247.72" rx="2.26" ry="1.36"/>
<path class="st11" d="M659.87,276.7c0,8.88-7.2,3.17-16.08,3.17c-8.88,0-15.62,3.9-15.62-4.98c0-24,6.74-27.17,15.62-27.17
	C652.67,247.72,659.87,249.08,659.87,276.7z"/>
<path class="st13" d="M659.87,276.25c0.45,9.96-7.1,9.96-15.85,9.96s-15.85-0.45-15.85-9.96c0-5.5,7.1-9.96,15.85-9.96
	S659.62,270.75,659.87,276.25z"/>
<ellipse class="st14" cx="638.13" cy="256.32" rx="1.81" ry="2.72"/>
<ellipse class="st14" cx="649.91" cy="256.32" rx="1.81" ry="2.72"/>
<circle class="st13" cx="639.49" cy="273.98" r="0.91"/>
<circle class="st13" cx="647.64" cy="273.98" r="0.91"/>
<ellipse class="st11" cx="663.04" cy="304.77" rx="4.98" ry="12.23"/>
<ellipse class="st11" cx="717.83" cy="304.77" rx="4.98" ry="12.23"/>
</svg>
