<?xml version="1.0" encoding="utf-8"?>
<!-- Generator: Adobe Illustrator 27.8.1, SVG Export Plug-In . SVG Version: 6.00 Build 0)  -->
<svg version="1.1" id="Layer_1" xmlns="http://www.w3.org/2000/svg" xmlns:xlink="http://www.w3.org/1999/xlink" x="0px" y="0px"
	 viewBox="0 0 500 500" style="enable-background:new 0 0 500 500;" xml:space="preserve">
<style type="text/css">
	.st0{fill:#E6E6E5;stroke:#010101;stroke-miterlimit:10;}
	.st1{fill:#8D633A;stroke:#010101;stroke-miterlimit:10;}
	.st2{fill:#F27BAA;stroke:#010101;stroke-miterlimit:10;}
	.st3{fill:#010101;stroke:#010101;stroke-miterlimit:10;}
</style>
<ellipse class="st0" cx="287.62" cy="428.21" rx="4.98" ry="12.23"/>
<ellipse class="st0" cx="202.48" cy="433.64" rx="4.98" ry="12.23"/>
<ellipse class="st0" cx="244.6" cy="407.83" rx="55.25" ry="31.25"/>
<ellipse class="st0" cx="184.6" cy="383.83" rx="4.75" ry="2.26"/>
<ellipse class="st0" cx="213.13" cy="383.83" rx="4.75" ry="2.26"/>
<ellipse transform="matrix(0.9667 -0.2561 0.2561 0.9667 -90.713 61.9494)" class="st1" cx="192.52" cy="379.3" rx="1.36" ry="2.26"/>
<ellipse transform="matrix(0.2174 -0.9761 0.9761 0.2174 -208.9301 498.0212)" class="st1" cx="206.11" cy="379.3" rx="2.26" ry="1.36"/>
<path class="st0" d="M214.71,408.28c0,8.88-7.2,3.17-16.08,3.17s-15.62,3.9-15.62-4.98c0-24,6.74-27.17,15.62-27.17
	S214.71,380.66,214.71,408.28z"/>
<path class="st2" d="M214.71,407.83c0.45,9.96-7.1,9.96-15.85,9.96c-8.75,0-15.85-0.45-15.85-9.96c0-5.5,7.1-9.96,15.85-9.96
	C207.61,397.87,214.46,402.33,214.71,407.83z"/>
<ellipse class="st3" cx="192.97" cy="387.91" rx="1.81" ry="2.72"/>
<ellipse class="st3" cx="204.75" cy="387.91" rx="1.81" ry="2.72"/>
<circle class="st2" cx="194.33" cy="405.57" r="0.91"/>
<circle class="st2" cx="202.48" cy="405.57" r="0.91"/>
<ellipse class="st0" cx="217.88" cy="436.36" rx="4.98" ry="12.23"/>
<ellipse class="st0" cx="272.67" cy="436.36" rx="4.98" ry="12.23"/>
</svg>
