<?xml version="1.0" encoding="utf-8"?>
<!-- Generator: Adobe Illustrator 27.8.1, SVG Export Plug-In . SVG Version: 6.00 Build 0)  -->
<svg version="1.1" id="Layer_1" xmlns="http://www.w3.org/2000/svg" xmlns:xlink="http://www.w3.org/1999/xlink" x="0px" y="0px"
	 viewBox="0 0 500 500" style="enable-background:new 0 0 500 500;" xml:space="preserve">
<style type="text/css">
	.a{fill:#4D4D4D;}
	.b{fill:#91D8F0;}
	.c{fill:#FFFFFF;}
	.d{fill:#333333;}
	.col1{fill:#9990C5;}
	.col2{fill:#F58E81;}
	.col3{fill:#FFF197;}
</style>
<g>
	
		<ellipse transform="matrix(0.9999 -0.0151 0.0151 0.9999 -6.0595 3.8198)" class="a" cx="250.05" cy="403.37" rx="195.74" ry="46.55"/>
	<path class="b" d="M249.34,356.83c23.17-0.35,45.41,0.28,66.07,1.72c-1.95-32.63-31.17-58.25-66.53-57.72
		c-35.34,0.53-63.76,26.99-64.76,59.64C204.51,358.44,226.46,357.17,249.34,356.83z"/>
	<path class="c" d="M243.65,306.85c0,0-37.23-1.55-50.01,40.23L243.65,306.85z"/>
	<path class="d" d="M427.55,420.47c-1.15,0.56-2.48-0.67-3.71-0.99c-187.43-49.38-350.71,6.34-350.71,6.34
		c-5.39-2.43-11.37-7.03-11.37-7.03s159.37-68.83,378.17-6.8C439.92,411.99,432.62,417.99,427.55,420.47z"/>
	<circle class="col1 light" cx="82.29" cy="396.64" r="6.32"/>
	<circle class="col2 light" cx="123.8" cy="384.61" r="6.32"/>
	<circle class="col3 light" cx="159.36" cy="376.8" r="6.32"/>
	<circle class="col1 light" cx="355.52" cy="377.81" r="6.32"/>
	<circle class="col2 light" cx="386.82" cy="383.94" r="6.32"/>
	<circle class="col3 light" cx="262.82" cy="368.94" r="6.32"/>
	<circle class="col2 light" cx="323.82" cy="371.94" r="6.32"/>
	<circle class="col3 light" cx="192.82" cy="373.94" r="6.32"/>
	<circle class="col1 light" cx="419.58" cy="394.69" r="6.32"/>
	<circle class="col2 light" cx="292.58" cy="368.69" r="6.32"/>
	<circle class="col1 light" cx="231.58" cy="369.69" r="6.32"/>
</g>
</svg>
